<svg width="32" height="32" viewBox="0 0 32 32" fill="none" xmlns="http://www.w3.org/2000/svg">
  <!-- Background -->
  <rect width="32" height="32" rx="6" fill="url(#circuitGradient)"/>
  
  <!-- Circuit pattern -->
  <path d="M6 16 L10 16 L10 12 L14 12" stroke="#00FF88" stroke-width="1" fill="none" opacity="0.7"/>
  <path d="M18 12 L22 12 L22 16 L26 16" stroke="#00FF88" stroke-width="1" fill="none" opacity="0.7"/>
  <path d="M6 20 L10 20 L10 24 L14 24" stroke="#00FF88" stroke-width="1" fill="none" opacity="0.7"/>
  <path d="M18 24 L22 24 L22 20 L26 20" stroke="#00FF88" stroke-width="1" fill="none" opacity="0.7"/>
  
  <!-- Circuit nodes -->
  <circle cx="10" cy="16" r="1" fill="#00FF88"/>
  <circle cx="22" cy="16" r="1" fill="#00FF88"/>
  <circle cx="14" cy="12" r="1" fill="#00FF88"/>
  <circle cx="18" cy="12" r="1" fill="#00FF88"/>
  <circle cx="14" cy="24" r="1" fill="#00FF88"/>
  <circle cx="18" cy="24" r="1" fill="#00FF88"/>
  
  <!-- BG text -->
  <text x="16" y="18" font-family="Arial, sans-serif" font-size="8" font-weight="bold" text-anchor="middle" fill="white">BG</text>
  
  <defs>
    <linearGradient id="circuitGradient" x1="0%" y1="0%" x2="100%" y2="100%">
      <stop offset="0%" style="stop-color:#0F172A;stop-opacity:1" />
      <stop offset="100%" style="stop-color:#1E293B;stop-opacity:1" />
    </linearGradient>
  </defs>
</svg>